<?xml version="1.0" encoding="UTF-8"?>
<svg xmlns="http://www.w3.org/2000/svg" xmlns:xlink="http://www.w3.org/1999/xlink" width="15pt" height="15pt" viewBox="0 0 15 15" version="1.1">
<g id="surface1">
<path style=" stroke:none;fill-rule:nonzero;fill:#000000;fill-opacity:1;" d="M 7.441406 0.894531 C 5.464844 0.894531 3.867188 2.488281 3.867188 4.464844 L 3.867188 5.953125 L 2.679688 5.953125 C 2.1875 5.953125 1.785156 6.355469 1.785156 6.84375 L 1.785156 13.988281 C 1.785156 14.476563 2.1875 14.882813 2.679688 14.882813 L 12.203125 14.882813 C 12.691406 14.882813 13.09375 14.476563 13.09375 13.988281 L 13.09375 6.84375 C 13.09375 6.355469 12.691406 5.953125 12.203125 5.953125 L 11.011719 5.953125 L 11.011719 4.464844 C 11.011719 2.488281 9.414063 0.894531 7.441406 0.894531 Z M 7.441406 1.488281 C 9.097656 1.488281 10.417969 2.808594 10.417969 4.464844 L 10.417969 5.953125 L 4.464844 5.953125 L 4.464844 4.464844 C 4.464844 2.808594 5.785156 1.488281 7.441406 1.488281 Z M 2.679688 6.546875 L 12.203125 6.546875 C 12.367188 6.546875 12.5 6.679688 12.5 6.84375 L 12.5 13.988281 C 12.5 14.152344 12.367188 14.285156 12.203125 14.285156 L 2.679688 14.285156 C 2.511719 14.285156 2.382813 14.152344 2.382813 13.988281 L 2.382813 6.84375 C 2.382813 6.679688 2.511719 6.546875 2.679688 6.546875 Z M 7.441406 8.929688 C 6.933594 8.929688 6.546875 9.316406 6.546875 9.820313 C 6.546875 10.089844 6.667969 10.324219 6.84375 10.472656 L 6.84375 11.308594 C 6.84375 11.636719 7.113281 11.90625 7.441406 11.90625 C 7.769531 11.90625 8.035156 11.636719 8.035156 11.308594 L 8.035156 10.472656 C 8.214844 10.324219 8.332031 10.089844 8.332031 9.820313 C 8.332031 9.316406 7.945313 8.929688 7.441406 8.929688 Z "/>
</g>
</svg>
